<svg width="87" height="34" viewBox="0 0 87 34" fill="none" xmlns="http://www.w3.org/2000/svg">
<g clip-path="url(#clip0_920_237)">
<path d="M50.1641 6.8822V10.9071L56.7211 16.0994L50.1641 21.2892V25.3166L61.8077 16.0994L50.1641 6.8822Z" fill="#DD4F50"/>
<path d="M36.8707 13.2987C36.8437 13.2169 36.8142 13.1401 36.7848 13.0509L36.77 13.0063C36.0258 10.9589 34.5802 9.24804 32.6948 8.18337C30.8095 7.11871 28.6089 6.77052 26.4913 7.20183L26.4299 7.21422L26.1034 7.29105L25.9635 7.32575L25.7008 7.40258L25.5241 7.4571L25.4357 7.48436C25.3792 7.50171 25.3252 7.52402 25.2712 7.54385L25.1141 7.60085C25.011 7.63803 24.9104 7.68016 24.8097 7.72229L24.7311 7.75451C22.9932 8.49853 21.5325 9.778 20.5578 11.4102L20.5308 11.4573C20.4719 11.5564 20.4154 11.6555 20.3614 11.7547C20.3319 11.8092 20.3025 11.8612 20.2755 11.9158L20.2018 12.0545L20.1699 12.1239C20.1306 12.2033 20.0963 12.2801 20.0594 12.3718C20.0226 12.4635 20.0103 12.4784 19.9883 12.5329C19.9662 12.5874 19.9146 12.7064 19.8802 12.7807C19.8459 12.8551 19.8385 12.8848 19.8189 12.9393L19.7305 13.1872C19.7108 13.2491 19.6888 13.3136 19.6667 13.378C19.6446 13.4425 19.6249 13.5143 19.6053 13.5837C19.5856 13.6531 19.5586 13.7448 19.5365 13.8316L19.4997 13.9827C19.4752 14.0868 19.4506 14.1909 19.4285 14.295C19.4285 14.3248 19.4285 14.3545 19.4113 14.3842C19.3843 14.5106 19.3622 14.6321 19.3426 14.7634C19.3438 14.7758 19.3438 14.7883 19.3426 14.8006C19.2747 15.2517 19.2411 15.7074 19.242 16.1637C19.242 16.305 19.242 16.4488 19.242 16.5925C19.242 16.6173 19.242 16.6396 19.242 16.6644C19.242 16.7759 19.2567 16.8899 19.2665 17.0014C19.2665 17.0585 19.2665 17.113 19.2837 17.1675C19.3009 17.222 19.3009 17.3187 19.3107 17.393C19.3205 17.4674 19.3352 17.574 19.3524 17.6657C19.3524 17.7004 19.3524 17.7375 19.3721 17.7747C19.395 17.9003 19.4195 18.0242 19.4457 18.1465V18.1589C19.5728 18.7358 19.7562 19.2987 19.9932 19.8392L20.0398 19.9433C20.0791 20.0301 20.1184 20.1168 20.1626 20.2036C20.2067 20.2903 20.2362 20.3547 20.2755 20.4291L20.3418 20.553C21.0256 21.8233 22.0013 22.9095 23.187 23.7204L23.2778 23.7799C23.3564 23.8344 23.435 23.8865 23.5233 23.936L23.7295 24.0599L23.8695 24.1417C23.9726 24.1987 24.0757 24.2557 24.1812 24.3103L24.2205 24.3301H24.2377C24.6997 24.5651 25.181 24.7592 25.6763 24.91L25.7671 24.9373L26.1304 25.0364L26.3219 25.0811C26.4079 25.0984 26.4938 25.1182 26.5674 25.1331C26.6411 25.148 26.7417 25.1678 26.8301 25.1802L27.0019 25.2075L27.3334 25.2496H27.3947C27.6834 25.2801 27.9735 25.2958 28.2638 25.2967C28.5461 25.2967 28.8309 25.2818 29.1132 25.2545H29.1991L29.4716 25.2223L29.6606 25.1951L29.7785 25.1752C30.7982 25.0035 31.7808 24.6547 32.6826 24.1442L32.7268 24.1194L32.987 23.9658L33.1466 23.8865L33.2988 23.7873L33.5443 23.6213L33.6008 23.5791C34.7291 22.755 35.6533 21.6786 36.3012 20.434L33.37 18.8776C33.0577 19.456 32.6501 19.9765 32.1646 20.4167C32.0738 20.4985 31.983 20.5827 31.8872 20.6645L31.7154 20.7984C31.6344 20.8603 31.5509 20.9223 31.4699 20.9793C31.3889 21.0363 31.3054 21.0859 31.2244 21.1379L31.028 21.2519C30.9175 21.3114 30.8071 21.3684 30.6917 21.4204L30.5567 21.4849C30.4241 21.5419 30.2915 21.5915 30.1541 21.641L30.0239 21.6856L29.8276 21.7476C29.7073 21.7798 29.5821 21.8096 29.4618 21.8368L29.312 21.8666C29.1696 21.8938 29.0223 21.9161 28.875 21.931H28.7989C28.632 21.9459 28.4626 21.9533 28.2932 21.9558H28.2613C28.1067 21.9558 27.9544 21.9558 27.8047 21.936H27.7826C27.6378 21.9236 27.4929 21.9062 27.3505 21.8814H27.3211C27.191 21.8591 27.0633 21.8319 26.9381 21.8021L26.8105 21.7699C26.7 21.7402 26.5895 21.7055 26.4815 21.6708L26.3146 21.6088L26.1255 21.5369L25.88 21.4304L25.6787 21.3312C25.3695 21.1709 25.0754 20.9826 24.7999 20.7686C24.7361 20.7191 24.6747 20.667 24.6133 20.615C24.5519 20.5629 24.4857 20.5084 24.4243 20.4514C24.3629 20.3944 24.2844 20.32 24.2181 20.2506L24.0634 20.1044C23.9947 20.0301 23.9284 19.9557 23.8646 19.8764C23.8007 19.7971 23.7762 19.7624 23.732 19.7054C23.6878 19.6484 23.5872 19.5146 23.5209 19.4129C23.4546 19.3113 23.3711 19.1874 23.3024 19.0684L23.2435 18.9296C23.1772 18.8107 23.1158 18.6818 23.0569 18.5604C23.0422 18.5281 23.0299 18.4934 23.0152 18.4612C22.9513 18.3125 22.8924 18.1638 22.8409 18.0102C22.8358 17.9891 22.8292 17.9684 22.8212 17.9482C22.8212 17.9085 22.7967 17.8714 22.7869 17.8317H37.32V16.1687C37.3202 15.1934 37.1652 14.2244 36.8609 13.2987H36.8707ZM22.7819 14.4983C22.7888 14.4813 22.7945 14.4639 22.7991 14.4462C22.836 14.3223 22.8777 14.1984 22.9243 14.0844C22.9243 14.0546 22.9489 14.0249 22.9612 13.9927C23.0004 13.8935 23.0422 13.7969 23.0888 13.7002C23.1035 13.668 23.1158 13.6358 23.133 13.606C23.1502 13.5763 23.1821 13.5143 23.2042 13.4697C23.2607 13.3607 23.3196 13.2566 23.3809 13.1525C23.4423 13.0484 23.4693 13.0112 23.516 12.9418L23.6436 12.7584C23.7074 12.6717 23.7713 12.5849 23.84 12.5106L23.8867 12.4536C24.1574 12.1222 24.4637 11.8221 24.7999 11.5589L24.8244 11.539C24.9275 11.4597 25.0331 11.3879 25.1411 11.316L25.2467 11.2491C25.3449 11.1871 25.4406 11.1301 25.5413 11.0756C25.6026 11.0409 25.6689 11.0111 25.7328 10.9789C25.7966 10.9467 25.8948 10.8947 25.9782 10.8575C26.128 10.793 26.2802 10.7336 26.4373 10.679C26.5944 10.6245 26.7074 10.5923 26.8473 10.5576H26.8767C28.2453 10.2123 29.6919 10.3888 30.9396 11.0533L31.0354 11.1078C32.0496 11.6763 32.8708 12.5399 33.3921 13.5862C33.4093 13.6234 33.4289 13.6581 33.4461 13.6953C33.4927 13.7919 33.5345 13.891 33.5738 13.9902C33.613 14.0893 33.6302 14.1315 33.6548 14.2008C33.6793 14.2702 33.7309 14.4115 33.7628 14.5181L22.7819 14.4983Z" fill="#20252A"/>
<path d="M14.7936 9.11032C13.4682 8.01214 11.8612 7.31659 10.1595 7.10465C8.45781 6.89271 6.73149 7.17309 5.18151 7.91315C3.63152 8.65322 2.32163 9.82253 1.40432 11.285C0.487003 12.7474 0 14.4428 0 16.1738C0 17.9048 0.487003 19.6002 1.40432 21.0626C2.32163 22.525 3.63152 23.6943 5.18151 24.4344C6.73149 25.1745 8.45781 25.4549 10.1595 25.2429C11.8612 25.031 13.4682 24.3354 14.7936 23.2372C14.7755 23.7955 14.6771 24.3482 14.5015 24.878C14.4095 25.1562 14.2971 25.4271 14.1651 25.6884C14.1283 25.7652 14.0866 25.8396 14.0448 25.9139L14.0178 25.961C13.981 26.023 13.9467 26.0825 13.9074 26.1419L13.8607 26.2188L13.7527 26.365L13.6889 26.4567C13.657 26.4988 13.6251 26.5434 13.5907 26.5856L13.517 26.6822L13.4139 26.8062L13.3403 26.8904C13.301 26.9375 13.2593 26.9821 13.2175 27.0243L13.1586 27.0887L13.004 27.2424L12.9696 27.2746C11.9525 28.2356 10.6254 28.7928 9.23322 28.8434H8.98773C8.84207 28.8434 8.69968 28.836 8.56057 28.8211L8.42555 28.8087C8.29053 28.7938 8.15796 28.774 8.0254 28.7517L7.85355 28.717C7.73572 28.6922 7.60806 28.6625 7.50005 28.6303L7.29384 28.5683L7.16618 28.5212C7.03116 28.4741 6.89614 28.4246 6.76603 28.3675L6.62855 28.3031C6.51563 28.2486 6.4027 28.1941 6.29223 28.1346C6.22595 28.0974 6.16212 28.0577 6.09829 28.0181C6.03446 27.9784 5.9289 27.9165 5.8528 27.862C5.7767 27.8074 5.68587 27.743 5.60731 27.681L5.43547 27.5472C5.34218 27.4679 5.24889 27.3861 5.16052 27.2994C4.67958 26.8536 4.27773 26.328 3.97234 25.7454L1.04363 27.3018C1.69058 28.547 2.61497 29.6236 3.74403 30.4469L3.80295 30.4915L4.04844 30.6551C4.09999 30.6898 4.14909 30.7245 4.2031 30.7567L4.34548 30.846C4.43141 30.9005 4.51978 30.9525 4.60816 31.0021C4.62123 31.0117 4.63521 31.02 4.64989 31.0269C5.66693 31.6013 6.78513 31.97 7.94193 32.1124H8.03767L8.30035 32.1397H8.44519C8.52375 32.1397 8.60476 32.1397 8.69068 32.1546H8.82325C8.90426 32.1546 8.98527 32.1546 9.06874 32.1546C9.15466 32.1546 9.23813 32.1546 9.31423 32.1546H9.42225L9.73156 32.1347H9.78066C11.527 31.995 13.195 31.3439 14.58 30.2611H14.5972C14.7175 30.1644 14.8427 30.0677 14.9507 29.9686C15.0096 29.919 15.0685 29.8695 15.125 29.8174C15.1815 29.7654 15.179 29.7629 15.2085 29.7381C15.2846 29.6662 15.3582 29.5968 15.4294 29.525L15.4957 29.458C15.5767 29.3763 15.6553 29.292 15.7412 29.2102L15.7829 29.1631C16.0674 28.8462 16.3292 28.5091 16.566 28.1544C16.5731 28.1472 16.5789 28.1388 16.5832 28.1296C16.652 28.028 16.7158 27.9264 16.7796 27.8198L16.841 27.7182C16.8868 27.6405 16.931 27.5637 16.9736 27.4877L17.0595 27.3291L17.1405 27.1705C17.2338 26.9821 17.3246 26.7913 17.4056 26.598C17.5221 26.3234 17.6245 26.043 17.7125 25.7578C17.846 25.3249 17.9469 24.8825 18.0144 24.4343C18.0845 23.9742 18.1198 23.5094 18.12 23.0439V7.13751H14.7936V9.11032ZM9.05401 21.9633C7.91882 21.9633 6.80913 21.6235 5.86526 20.9868C4.92139 20.3501 4.18574 19.4451 3.75132 18.3863C3.3169 17.3275 3.20324 16.1624 3.42471 15.0384C3.64617 13.9143 4.19281 12.8819 4.99551 12.0715C5.7982 11.2611 6.8209 10.7092 7.93427 10.4856C9.04764 10.2621 10.2017 10.3768 11.2505 10.8154C12.2992 11.254 13.1956 11.9967 13.8263 12.9496C14.457 13.9025 14.7936 15.0228 14.7936 16.1688C14.7923 17.7052 14.1872 19.1783 13.1111 20.2647C12.035 21.3511 10.5758 21.962 9.05401 21.9633Z" fill="#20252A"/>
<path d="M47.6306 10.4114V7.06805H41.8935V2.07654H38.5818V16.1688C38.5844 18.591 39.5385 20.9134 41.2348 22.6265C42.9312 24.3395 45.2313 25.3034 47.6306 25.3067V21.9633C46.109 21.9613 44.6502 21.3502 43.5742 20.2639C42.4983 19.1777 41.893 17.705 41.891 16.1688V10.4114H47.6306Z" fill="#20252A"/>
<path d="M66.5553 7.05066H63.2437V25.1852H66.5553V7.05066Z" fill="#20252A"/>
<path d="M78.047 6.92432C75.9988 6.92498 74.0134 7.63834 72.4253 8.94422V7.05072H69.1038V25.1852H72.4253V15.9556C72.4253 14.4478 73.0186 13.0016 74.0747 11.9354C75.1308 10.8692 76.5633 10.2702 78.0568 10.2702C79.5504 10.2702 80.9828 10.8692 82.039 11.9354C83.0951 13.0016 83.6884 14.4478 83.6884 15.9556V25.1852H87.0001V15.9556C86.9981 13.5597 86.054 11.2626 84.3752 9.56908C82.6964 7.87559 80.4202 6.92432 78.047 6.92432Z" fill="#20252A"/>
</g>
<defs>
<clipPath id="clip0_920_237">
<rect width="87" height="34" fill="white"/>
</clipPath>
</defs>
</svg>
